<?xml version="1.0" encoding="UTF-8"?><svg id="Camada_1" xmlns="http://www.w3.org/2000/svg" viewBox="0 0 1080 1080"><defs><style>.cls-1{fill:#212121;}.cls-1,.cls-2,.cls-3,.cls-4{stroke-width:0px;}.cls-2{fill:#d7e9c8;}.cls-3{fill:#98c872;}.cls-4{fill:#7f7f7f;}</style></defs><rect class="cls-2" x="0" y="0" width="1080" height="1080"/><path class="cls-1" d="M172.84,573.4l15.16-38.18,14.97,38.18h-30.13ZM113.16,626.36h39.14l9.59-23.98h51.81l9.79,23.98h39.91l-57.18-135.27h-35.88l-57.18,135.27Z"/><path class="cls-1" d="M313.63,589.13c-12.47,0-21.3-8.44-21.3-19.96v-.38c0-11.51,8.83-20.15,21.3-20.15s21.11,8.44,21.11,19.96v.38c0,11.51-8.83,20.15-21.11,20.15M311.52,657.44c21.68,0,36.27-5.18,45.67-14.58,9.21-9.21,13.43-22.45,13.43-41.45v-78.86h-36.46v12.28c-7.87-8.25-17.08-14.58-32.62-14.58-23.98,0-44.9,18.42-44.9,48.35v.38c0,29.74,20.53,48.16,46.05,48.16,15.16,0,24.75-7.1,32.04-15.54v4.03c0,16.5-9.02,25.52-27.25,25.52-14.01,0-25.14-3.65-36.26-9.79l-11.7,24.18c14.97,7.68,31.85,11.9,52,11.9Z"/><path class="cls-1" d="M381.65,626.36h36.46v-32.24c0-23.98,10.74-34.92,29.74-34.92h3.07v-38.38c-17.27-.77-26.86,8.44-32.81,22.64v-20.91h-36.46v103.81Z"/><path class="cls-1" d="M512.63,597.96c-12.86,0-22.07-10.75-22.07-23.41v-.38c0-12.47,8.44-23.03,21.68-23.03s22.07,10.74,22.07,23.41v.38c0,12.47-8.44,23.03-21.68,23.03M512.25,628.85c33.39,0,57.56-24.75,57.56-54.3v-.38c0-29.55-23.98-53.92-57.18-53.92s-57.56,24.75-57.56,54.3v.38c0,29.55,23.99,53.92,57.18,53.92Z"/><path class="cls-4" d="M733.7,626.36v-66.97c0-24.75-13.05-37.8-34.73-37.8-14.01,0-24.75,5.76-33.77,16.31-5.37-10.36-15.54-16.31-28.97-16.31-14.77,0-23.6,7.87-30.32,16.5v-14.58h-29.17v102.85h29.17v-57.37c0-13.82,6.72-20.91,17.65-20.91s17.08,7.1,17.08,20.91v57.37h29.17v-57.37c0-13.82,6.72-20.91,17.65-20.91s17.08,7.1,17.08,20.91v57.37h29.17Z"/><path class="cls-4" d="M809,590.09c0,10.55-9.21,18.04-22.83,18.04-9.4,0-15.93-4.61-15.93-12.47v-.38c0-9.21,7.68-14.2,20.15-14.2,7.1,0,13.62,1.54,18.61,3.84v5.18ZM836.63,626.36v-59.67c0-27.82-14.01-44.32-45.86-44.32-17.46,0-28.59,3.26-39.91,8.25l7.29,22.26c9.4-3.45,17.27-5.56,28.4-5.56,14.58,0,22.07,6.72,22.07,18.8v1.73c-7.29-2.49-14.77-4.22-25.14-4.22-24.37,0-41.45,10.36-41.45,32.81v.38c0,20.34,15.93,31.47,35.31,31.47,14.2,0,23.98-5.18,31.08-13.05v11.13h28.21Z"/><rect class="cls-4" x="845.52" y="523.51" width="29.17" height="102.85"/><path class="cls-4" d="M963.44,595.08v-.38c0-18.8-16.69-25.71-31.08-30.51-11.13-3.84-20.91-6.52-20.91-12.28v-.38c0-4.03,3.65-7.1,10.74-7.1,7.48,0,17.65,3.65,27.82,9.59l11.13-20.15c-11.13-7.48-25.33-11.9-38.38-11.9-20.72,0-37.61,11.7-37.61,32.62v.38c0,19.96,16.31,26.67,30.7,30.89,11.32,3.45,21.3,5.56,21.3,11.9v.38c0,4.6-3.84,7.67-12.28,7.67-9.59,0-21.3-4.22-32.43-12.28l-12.47,19.19c13.62,10.75,29.74,15.54,44.13,15.54,22.26,0,39.33-10.36,39.33-33.19"/><path class="cls-3" d="M818.26,424.63h0s0,0,0,0h0ZM861.38,502.73c27.01-.14,38.83-40.49,11.31-53.53-4.01-1.9-8.62-3.66-13.93-5.18-35.71-10.25-40.39-19.17-40.85-20.28l-.03-.07s-.02-.05-.02-.05c0,0,0,.1,0,.29h0s0,.02,0,.02h0s0,.21,0,.21h0s0,0,0,0c-.12,6.53-.3,75.76,43.52,78.59Z"/><path class="cls-3" d="M966.17,419.05h0s0,0,0,0h0ZM897.87,509.54c-7.61-1.13-13.9-4.67-18.65-9.6.8-.63,1.57-1.3,2.32-2.02,3.87-3.73,6.76-8.43,8.47-13.52,1.52-4.53,2.12-9.38,1.64-14.14-.94-9.16-5.65-16.65-12.95-21.59,3.73-3.68,8.56-6.65,14.58-8.51,5.39-1.67,11.51-3.05,18.45-4.01,46.77-6.47,54.26-16.85,55.04-18.16l.05-.08s.03-.06.03-.06c0,0-.01.13-.04.36h0s0,.02,0,.02h0s-.03.26-.03.26h0s0,0,0,0c-1.03,8.24-13.25,95.37-68.89,91.05Z"/></svg>