<?xml version="1.0" encoding="UTF-8"?>
<svg width="64px" height="64px" viewBox="0 0 64 64" version="1.1" xmlns="http://www.w3.org/2000/svg">
    <g stroke="none" stroke-width="1" fill="none" fill-rule="evenodd">
        <circle fill="#E8F5E9" cx="32" cy="32" r="32"/>
        <g transform="translate(16, 12)">
            <!-- Cabeça do usuário -->
            <path d="M16,0 C20.418278,0 24,3.581722 24,8 C24,12.418278 20.418278,16 16,16 C11.581722,16 8,12.418278 8,8 C8,3.581722 11.581722,0 16,0 Z" fill="#28a745"/>
            <!-- Corpo do usuário -->
            <path d="M32,32 L0,32 L0,26 C0,20.477153 4.477153,16 10,16 L22,16 C27.522847,16 32,20.477153 32,26 L32,32 Z" fill="#28a745"/>
            <!-- Cadeado -->
            <rect x="12" y="24" width="8" height="12" rx="1" fill="#28a745"/>
        </g>
    </g>
</svg> 